<svg xmlns="http://www.w3.org/2000/svg"
 xmlns:xlink="http://www.w3.org/1999/xlink"
 width="35px" height="35px"  viewBox="0 0 35 35">
<path fill-rule="evenodd"  fill="#ffffff"
 d="M17.611572,1.1837158 C8.778809,1.1837158 1.6180115,8.344513 1.6180115,17.177643 C1.6180115,26.011353 8.778809,33.17148 17.611572,33.17148 C26.445068,33.17148 33.605225,26.011353 33.605225,17.177643 C33.605225,8.344513 26.445068,1.1837158 17.611572,1.1837158 ZM25.891998,15.967468 C25.891998,15.967468 18.64212,23.217468 18.64212,23.217468 C17.250122,24.611572 15.345642,24.963928 14.388123,24.00647 C14.375488,23.993744 14.368439,23.975616 14.356018,23.962952 C14.136169,23.859009 13.922119,23.735535 13.740936,23.554443 C13.740936,23.554443 9.356506,19.16977 9.356506,19.16977 C8.514099,18.327454 8.514099,16.96286 9.356506,16.12033 C10.198914,15.278107 11.564209,15.278107 12.406616,16.12033 C12.406616,16.12033 15.60614,19.319885 15.60614,19.319885 C15.60614,19.319885 22.425629,12.501068 22.425629,12.501068 C23.81836,11.108246 25.720642,10.756653 26.679626,11.713318 C27.637024,12.670898 27.283203,14.576691 25.891998,15.967468 Z"/>
</svg>