<svg xmlns="http://www.w3.org/2000/svg"
 xmlns:xlink="http://www.w3.org/1999/xlink"
 width="60px" height="83px"  viewBox="0 0 60 83">
<path fill-rule="evenodd"  fill="#ffffff"
 d="M56.379303,20.586151 C56.379303,20.586151 51.581604,28.287476 51.581604,28.287476 C51.581604,28.287476 27.632965,13.377319 27.632965,13.377319 C27.632965,13.377319 32.426743,5.675812 32.426743,5.675812 C34.542336,2.27417 39.01751,1.2324524 42.422363,3.3496094 C42.422363,3.3496094 54.055008,10.592255 54.055008,10.592255 C57.456573,12.70932 58.49466,17.18454 56.379303,20.586151 ZM27.586922,66.74173 C27.586922,66.74173 3.6909332,51.83499 3.6909332,51.83499 C3.6909332,51.83499 25.80973,16.380127 25.80973,16.380127 C25.80973,16.380127 49.707245,31.299316 49.707245,31.299316 C49.707245,31.299316 27.586922,66.74173 27.586922,66.74173 ZM30.81282,25.357208 C29.688057,24.657257 28.24038,24.946136 27.599281,25.993256 C27.599281,25.993256 11.874107,51.18286 11.874107,51.18286 C11.213287,52.21411 11.590637,53.641907 12.722687,54.343536 C13.837074,55.048553 15.28437,54.757935 15.940002,53.730408 C15.940002,53.730408 31.661476,28.532074 31.661476,28.532074 C32.317146,27.486725 31.930717,26.055359 30.81282,25.357208 ZM39.471115,30.759186 C38.35135,30.06836 36.89501,30.34616 36.253456,31.393372 C36.253456,31.393372 20.525154,56.590057 20.525154,56.590057 C19.876694,57.617584 20.259155,59.056274 21.377014,59.74356 C22.502197,60.45575 23.9477,60.161774 24.599747,59.130646 C24.599747,59.130646 40.32847,33.944458 40.32847,33.944458 C40.976852,32.88675 40.59401,31.467651 39.471115,30.759186 ZM14.834503,75.45831 C13.675941,73.02759 11.859993,70.87326 9.406265,69.3461 C6.9542923,67.81891 4.222435,67.14212 1.5331116,67.17395 C1.5331116,67.17395 1.098999,56.06198 1.098999,56.06198 C1.098999,56.06198 24.975304,70.96176 24.975304,70.96176 C24.975304,70.96176 14.834503,75.45831 14.834503,75.45831 ZM8.100533,71.43671 C10.116676,72.69098 11.601318,74.473236 12.494263,76.49301 C12.494263,76.49301 2.0734634,81.113525 2.0734634,81.113525 C2.0734634,81.113525 1.6287079,69.72522 1.6287079,69.72522 C3.834404,69.63663 6.08622,70.18576 8.100533,71.43671 Z"/>
</svg>