<svg xmlns="http://www.w3.org/2000/svg"
 xmlns:xlink="http://www.w3.org/1999/xlink"
 width="73px" height="63px"  viewBox="0 0 73 63">
<path fill-rule="evenodd"  fill="#ffffff"
 d="M9.461998,1.1997681 C4.8668137,1.1997681 1.1722794,4.90448 1.1722794,9.49884 C1.1722794,9.49884 1.1722794,40.593628 1.1722794,40.593628 C1.1722794,45.190308 4.8668137,48.88611 9.461998,48.88611 C9.461998,48.88611 28.116516,48.88611 28.116516,48.88611 C28.116516,48.88611 28.116516,55.09967 28.116516,55.09967 C28.116516,55.09967 19.826797,55.09967 19.826797,55.09967 C18.683037,55.09967 17.751793,56.029663 17.751793,57.174683 C17.751793,57.174683 17.751793,61.32361 17.751793,61.32361 C17.751793,61.32361 55.071045,61.32361 55.071045,61.32361 C55.071045,61.32361 55.071045,57.174683 55.071045,57.174683 C55.071045,56.029663 54.139847,55.09967 52.996094,55.09967 C52.996094,55.09967 44.70633,55.09967 44.70633,55.09967 C44.70633,55.09967 44.70633,48.88611 44.70633,48.88611 C44.70633,48.88611 63.36084,48.88611 63.36084,48.88611 C67.956024,48.88611 71.65053,45.190308 71.65053,40.593628 C71.65053,40.593628 71.65053,9.49884 71.65053,9.49884 C71.65053,4.90448 67.956024,1.1997681 63.36084,1.1997681 C63.36084,1.1997681 9.461998,1.1997681 9.461998,1.1997681 C9.461998,1.1997681 9.461998,1.1997681 9.461998,1.1997681 ZM11.537041,9.49884 C11.537041,9.49884 61.285797,9.49884 61.285797,9.49884 C62.439667,9.49884 63.36084,10.4210205 63.36084,11.564758 C63.36084,11.564758 63.36084,38.52124 63.36084,38.52124 C63.36084,39.663696 62.439667,40.593628 61.285797,40.593628 C61.285797,40.593628 11.537041,40.593628 11.537041,40.593628 C10.39328,40.593628 9.461998,39.663696 9.461998,38.52124 C9.461998,38.52124 9.461998,11.564758 9.461998,11.564758 C9.461998,10.4210205 10.39328,9.49884 11.537041,9.49884 C11.537041,9.49884 11.537041,9.49884 11.537041,9.49884 Z"/>
</svg>