<svg xmlns="http://www.w3.org/2000/svg"
 xmlns:xlink="http://www.w3.org/1999/xlink"
 width="81px" height="73px"  viewBox="0 0 81 73">
<path fill-rule="evenodd"  fill="#ffffff"
 d="M39.438904,1.5913086 C36.68042,1.5913086 34.41899,3.5062256 33.90767,6.123474 C33.90767,6.123474 33.76355,6.123474 33.76355,6.123474 C33.76355,6.123474 15.606812,26.562439 15.606812,26.562439 C15.606812,26.562439 24.68518,26.562439 24.68518,26.562439 C24.68518,26.562439 37.244232,12.441772 37.244232,12.441772 C37.920464,12.728699 38.66307,12.942078 39.438904,12.942078 C40.227516,12.942078 40.956238,12.728699 41.646355,12.441772 C41.646355,12.441772 54.191177,26.562439 54.191177,26.562439 C54.191177,26.562439 63.28369,26.562439 63.28369,26.562439 C63.28369,26.562439 45.114258,6.123474 45.114258,6.123474 C45.114258,6.123474 44.96869,6.123474 44.96869,6.123474 C44.472664,3.5062256 42.210205,1.5913086 39.438904,1.5913086 C39.438904,1.5913086 39.438904,1.5913086 39.438904,1.5913086 ZM6.52993,31.097412 C4.012039,31.097412 1.9836502,33.125977 1.9836502,35.643616 C1.9836502,35.643616 1.9836502,37.913208 1.9836502,37.913208 C1.9836502,40.308777 3.8222198,42.1933 6.1752777,42.383118 C6.1752777,42.383118 13.334473,67.422 13.334473,67.422 C15.606812,71.96539 17.880676,71.96539 20.1389,71.96539 C20.1389,71.96539 61.009872,71.96539 61.009872,71.96539 C63.28369,71.96539 65.54196,71.96539 67.815796,67.422 C67.815796,67.422 74.98917,42.383118 74.98917,42.383118 C77.32655,42.1933 79.166534,40.308777 79.166534,37.913208 C79.166534,37.913208 79.166534,35.643616 79.166534,35.643616 C79.166534,33.125977 77.14925,31.097412 74.634445,31.097412 C74.634445,31.097412 6.52993,31.097412 6.52993,31.097412 C6.52993,31.097412 6.52993,31.097412 6.52993,31.097412 ZM19.299553,42.44818 C19.299553,42.44818 20.428665,42.44818 20.428665,42.44818 C22.94625,42.44818 25.4292,44.34369 25.959862,46.70465 C25.959862,46.70465 29.152267,60.828064 29.152267,60.828064 C29.685753,63.200134 28.056381,65.1496 25.538795,65.1496 C25.538795,65.1496 24.395416,65.1496 24.395416,65.1496 C21.882103,65.1496 19.399155,63.200134 18.865631,60.828064 C18.865631,60.828064 15.673302,46.70465 15.673302,46.70465 C15.142601,44.34369 16.781662,42.44818 19.299553,42.44818 C19.299553,42.44818 19.299553,42.44818 19.299553,42.44818 ZM40.582207,42.44818 C43.09697,42.44818 45.114258,44.476746 45.114258,46.994324 C45.114258,46.994324 45.114258,60.614624 45.114258,60.614624 C45.114258,63.132324 43.09697,65.1496 40.582207,65.1496 C38.064278,65.1496 36.035927,63.132324 36.035927,60.614624 C36.035927,60.614624 36.035927,46.994324 36.035927,46.994324 C36.035927,44.476746 38.064278,42.44818 40.582207,42.44818 C40.582207,42.44818 40.582207,42.44818 40.582207,42.44818 ZM60.72159,42.44818 C60.72159,42.44818 61.86487,42.44818 61.86487,42.44818 C64.37958,42.44818 66.00758,44.34369 65.47696,46.70465 C65.47696,46.70465 62.284546,60.828064 62.284546,60.828064 C61.75107,63.200134 59.270935,65.1496 56.753357,65.1496 C56.753357,65.1496 55.610016,65.1496 55.610016,65.1496 C53.096664,65.1496 51.467255,63.200134 51.997917,60.828064 C51.997917,60.828064 55.190323,46.70465 55.190323,46.70465 C55.72377,44.34369 58.20398,42.44818 60.72159,42.44818 C60.72159,42.44818 60.72159,42.44818 60.72159,42.44818 Z"/>
</svg>